<svg width="40" height="40" viewBox="0 0 40 40" fill="none" xmlns="http://www.w3.org/2000/svg">
<circle cx="20" cy="20" r="20" fill="white"/>
<path d="M16.51 11H24.49C27.53 11 30 13.47 30 16.51V24.49C30 25.9513 29.4195 27.3528 28.3862 28.3862C27.3528 29.4195 25.9513 30 24.49 30H16.51C13.47 30 11 27.53 11 24.49V16.51C11 15.0487 11.5805 13.6472 12.6138 12.6138C13.6472 11.5805 15.0487 11 16.51 11ZM16.32 12.9C15.413 12.9 14.5431 13.2603 13.9017 13.9017C13.2603 14.5431 12.9 15.413 12.9 16.32V24.68C12.9 26.5705 14.4295 28.1 16.32 28.1H24.68C25.587 28.1 26.4569 27.7397 27.0983 27.0983C27.7397 26.4569 28.1 25.587 28.1 24.68V16.32C28.1 14.4295 26.5705 12.9 24.68 12.9H16.32ZM25.4875 14.325C25.8024 14.325 26.1045 14.4501 26.3272 14.6728C26.5499 14.8955 26.675 15.1976 26.675 15.5125C26.675 15.8274 26.5499 16.1295 26.3272 16.3522C26.1045 16.5749 25.8024 16.7 25.4875 16.7C25.1726 16.7 24.8705 16.5749 24.6478 16.3522C24.4251 16.1295 24.3 15.8274 24.3 15.5125C24.3 15.1976 24.4251 14.8955 24.6478 14.6728C24.8705 14.4501 25.1726 14.325 25.4875 14.325ZM20.5 15.75C21.7598 15.75 22.968 16.2504 23.8588 17.1412C24.7496 18.032 25.25 19.2402 25.25 20.5C25.25 21.7598 24.7496 22.968 23.8588 23.8588C22.968 24.7496 21.7598 25.25 20.5 25.25C19.2402 25.25 18.032 24.7496 17.1412 23.8588C16.2504 22.968 15.75 21.7598 15.75 20.5C15.75 19.2402 16.2504 18.032 17.1412 17.1412C18.032 16.2504 19.2402 15.75 20.5 15.75ZM20.5 17.65C19.7441 17.65 19.0192 17.9503 18.4847 18.4847C17.9503 19.0192 17.65 19.7441 17.65 20.5C17.65 21.2559 17.9503 21.9808 18.4847 22.5153C19.0192 23.0497 19.7441 23.35 20.5 23.35C21.2559 23.35 21.9808 23.0497 22.5153 22.5153C23.0497 21.9808 23.35 21.2559 23.35 20.5C23.35 19.7441 23.0497 19.0192 22.5153 18.4847C21.9808 17.9503 21.2559 17.65 20.5 17.65Z" fill="#1E1E1E"/>
</svg>
