<svg width="40" height="40" viewBox="0 0 40 40" fill="none" xmlns="http://www.w3.org/2000/svg">
<circle cx="20" cy="20" r="20" fill="white"/>
<path d="M17.8 23.7143L23.509 20.5L17.8 17.2857V23.7143ZM30.516 15.325C30.659 15.8286 30.758 16.5036 30.824 17.3607C30.901 18.2179 30.934 18.9571 30.934 19.6L31 20.5C31 22.8464 30.824 24.5714 30.516 25.675C30.241 26.6393 29.603 27.2607 28.613 27.5286C28.096 27.6679 27.15 27.7643 25.698 27.8286C24.268 27.9036 22.959 27.9357 21.749 27.9357L20 28C15.391 28 12.52 27.8286 11.387 27.5286C10.397 27.2607 9.759 26.6393 9.484 25.675C9.341 25.1714 9.242 24.4964 9.176 23.6393C9.099 22.7821 9.066 22.0429 9.066 21.4L9 20.5C9 18.1536 9.176 16.4286 9.484 15.325C9.759 14.3607 10.397 13.7393 11.387 13.4714C11.904 13.3321 12.85 13.2357 14.302 13.1714C15.732 13.0964 17.041 13.0643 18.251 13.0643L20 13C24.609 13 27.48 13.1714 28.613 13.4714C29.603 13.7393 30.241 14.3607 30.516 15.325Z" fill="#1E1E1E"/>
</svg>
